<svg width="235" height="40" viewBox="0 0 235 40" fill="none" xmlns="http://www.w3.org/2000/svg">
<path fill-rule="evenodd" clip-rule="evenodd" d="M19.5293 34C27.0793 34 33.1998 27.732 33.1998 20C33.1998 12.268 27.0793 6 19.5293 6C11.9793 6 5.85879 12.268 5.85879 20C5.85879 27.732 11.9793 34 19.5293 34ZM19.5293 40C30.315 40 39.0586 31.0457 39.0586 20C39.0586 8.95431 30.315 0 19.5293 0C8.74356 0 0 8.95431 0 20C0 31.0457 8.74356 40 19.5293 40Z" fill="#F7752A"/>
<path d="M19.5293 10.8L24.7768 16.1892C27.6749 19.1656 27.6749 23.9913 24.7768 26.9677C21.8787 29.9441 17.1799 29.9441 14.2818 26.9677C11.3836 23.9913 11.3836 19.1656 14.2818 16.1892L19.5293 10.8Z" fill="#FC2F1E"/>
<path d="M19.5293 15.5932L23.0717 19.2313C25.0282 21.2406 25.0282 24.4983 23.0717 26.5076C21.1153 28.5168 17.9433 28.5168 15.9868 26.5076C14.0304 24.4983 14.0304 21.2406 15.9868 19.2313L19.5293 15.5932Z" fill="#F7752A"/>
<path d="M19.5293 19.6L21.5331 21.6579C22.6398 22.7945 22.6398 24.6372 21.5331 25.7738C20.4265 26.9103 18.6322 26.9103 17.5255 25.7738C16.4188 24.6372 16.4188 22.7945 17.5255 21.6579L19.5293 19.6Z" fill="#FCAB1E"/>
<path d="M65.1905 11.432V31.8H60.2925V16.2656H52.1293V31.8H47.2313V11.432H65.1905Z" fill="#FEFEFF"/>
<path d="M73.8551 24.8992L79.4358 16.6H84.0369V31.8H79.4358V23.5008L73.8551 31.8H69.254V16.6H73.8551V24.8992Z" fill="#FEFEFF"/>
<path d="M100.459 16.6V21.0992H95.7984V31.8H91.1973V21.0992H86.5072V16.6H100.459Z" fill="#FEFEFF"/>
<path d="M109.768 16.144C112.241 16.144 114.191 17.056 115.615 18.88C117.04 20.6837 117.604 22.9738 117.307 25.7504H106.621C106.779 26.3786 107.116 26.9056 107.63 27.3312C108.145 27.7568 108.808 28.0101 109.619 28.0912C110.193 28.1317 110.747 28.0506 111.281 27.848C111.816 27.625 112.202 27.321 112.439 26.936H117.218C116.763 28.6181 115.843 29.9253 114.458 30.8576C113.092 31.7898 111.499 32.256 109.678 32.256C107.264 32.256 105.374 31.4858 104.009 29.9456C102.663 28.385 101.99 26.4698 101.99 24.2C101.99 21.8896 102.713 19.9744 104.157 18.4544C105.622 16.9141 107.492 16.144 109.768 16.144ZM109.738 20.2784C109.006 20.2784 108.362 20.4608 107.808 20.8256C107.274 21.1701 106.898 21.6464 106.68 22.2544H112.766C112.33 20.937 111.321 20.2784 109.738 20.2784Z" fill="#FEFEFF"/>
<path d="M129.445 16.144C131.464 16.144 133.106 16.9141 134.373 18.4544C135.659 19.9744 136.302 21.9098 136.302 24.2608C136.302 26.632 135.649 28.5573 134.343 30.0368C133.057 31.5162 131.424 32.256 129.445 32.256C128.456 32.256 127.565 32.0432 126.774 31.6176C125.982 31.192 125.349 30.6346 124.874 29.9456H124.755V37.88H120.184V16.6H124.755V18.4544H124.874C125.349 17.7653 125.982 17.208 126.774 16.7824C127.565 16.3568 128.456 16.144 129.445 16.144ZM128.199 27.8176C129.188 27.8176 130.009 27.4832 130.662 26.8144C131.315 26.1253 131.642 25.2538 131.642 24.2C131.642 23.1461 131.315 22.2848 130.662 21.616C130.009 20.9269 129.188 20.5824 128.199 20.5824C127.209 20.5824 126.388 20.9269 125.735 21.616C125.082 22.305 124.755 23.1664 124.755 24.2C124.755 25.2133 125.072 26.0746 125.705 26.784C126.358 27.473 127.189 27.8176 128.199 27.8176Z" fill="#FEFEFF"/>
<path d="M157.463 11.232L152.862 18.8624C155.652 18.9232 157.048 20.4837 157.048 23.544V31.6H152.15V24.6992C152.15 23.9493 151.774 23.5744 151.022 23.5744H144.343V31.6H139.445V11.232H144.343V18.8624H147.578L152.09 11.232H157.463Z" fill="#F7752A"/>
<path d="M170.996 18.2544V16.4H175.568V31.6H170.996V29.7456H170.878C170.403 30.4347 169.769 30.992 168.978 31.4176C168.186 31.8432 167.296 32.056 166.306 32.056C164.327 32.056 162.685 31.3163 161.378 29.8368C160.092 28.3573 159.449 26.432 159.449 24.0608C159.449 21.7099 160.082 19.7744 161.349 18.2544C162.635 16.7141 164.288 15.944 166.306 15.944C167.296 15.944 168.186 16.1568 168.978 16.5824C169.769 17.008 170.403 17.5653 170.878 18.2544H170.996ZM167.553 27.6176C168.562 27.6176 169.383 27.2731 170.017 26.584C170.67 25.8747 170.996 25.0133 170.996 24C170.996 22.9664 170.67 22.1051 170.017 21.416C169.364 20.7269 168.542 20.3824 167.553 20.3824C166.563 20.3824 165.742 20.7269 165.089 21.416C164.436 22.0848 164.109 22.9461 164.109 24C164.109 25.0539 164.436 25.9253 165.089 26.6144C165.742 27.2832 166.563 27.6176 167.553 27.6176Z" fill="#F7752A"/>
<path d="M198.533 16.4V31.6H193.932V21.8416L190.637 31.6H187.045L183.75 21.7808V31.6H179.149V16.4H186.333L188.916 24.3648L191.498 16.4H198.533Z" fill="#F7752A"/>
<path d="M206.737 24.6992L212.318 16.4H216.919V31.6H212.318V23.3008L206.737 31.6H202.136V16.4H206.737V24.6992Z" fill="#F7752A"/>
<path d="M230.399 21.6896V16.4H235V31.6H230.399V26.128H225.115V31.6H220.514V16.4H225.115V21.6896H230.399Z" fill="#F7752A"/>
</svg>
